M48
; DRILL file {KiCad 9.0.6} date 2025-12-11T14:54:14+0600
; FORMAT={-:-/ absolute / metric / decimal}
; #@! TF.CreationDate,2025-12-11T14:54:14+06:00
; #@! TF.GenerationSoftware,Kicad,Pcbnew,9.0.6
; #@! TF.FileFunction,Plated,1,2,PTH
FMAT,2
METRIC
; #@! TA.AperFunction,Plated,PTH,ViaDrill
T1C0.300
; #@! TA.AperFunction,Plated,PTH,ComponentDrill
T2C0.750
; #@! TA.AperFunction,Plated,PTH,ComponentDrill
T3C1.000
; #@! TA.AperFunction,Plated,PTH,ComponentDrill
T4C1.020
; #@! TA.AperFunction,Plated,PTH,ComponentDrill
T5C1.700
; #@! TA.AperFunction,Plated,PTH,ComponentDrill
T6C2.000
%
G90
G05
T1
X100.773Y-78.613
X101.473Y-75.311
X102.581Y-83.531
X105.664Y-92.837
X107.407Y-78.705
X111.042Y-95.365
X111.042Y-98.044
X111.28Y-82.705
X121.285Y-94.615
X121.474Y-85.344
X121.539Y-92.329
X122.874Y-85.277
X123.742Y-91.186
X124.587Y-92.329
X128.905Y-84.452
X138.176Y-83.501
X142.875Y-112.395
X147.786Y-92.774
X149.733Y-93.091
T2
X133.624Y-84.201
X136.124Y-84.201
T3
X130.302Y-54.498
X132.842Y-54.498
X135.382Y-54.498
X137.922Y-54.498
X152.4Y-80.649
X152.4Y-85.149
X152.4Y-88.207
X152.4Y-92.707
X152.4Y-95.765
X152.4Y-100.265
X152.4Y-103.323
X152.4Y-107.823
X152.4Y-110.881
X152.4Y-115.381
X158.9Y-80.649
X158.9Y-85.149
X158.9Y-88.207
X158.9Y-92.707
X158.9Y-95.765
X158.9Y-100.265
X158.9Y-103.323
X158.9Y-107.823
X158.9Y-110.881
X158.9Y-115.381
T4
X107.568Y-89.192
X107.568Y-114.592
X110.108Y-89.192
X110.108Y-114.592
X112.648Y-89.192
X112.648Y-114.592
X115.188Y-89.192
X115.188Y-114.592
X117.728Y-89.192
X117.728Y-114.592
X120.268Y-89.192
X120.268Y-114.592
X122.808Y-89.192
X122.808Y-114.592
X125.348Y-89.192
X125.348Y-114.592
X127.888Y-89.192
X127.888Y-114.592
X130.428Y-89.192
X130.428Y-114.592
X132.968Y-89.192
X132.968Y-114.592
X135.508Y-89.192
X135.508Y-114.592
X138.048Y-89.192
X138.048Y-114.592
X140.588Y-89.192
X140.588Y-114.592
X143.128Y-89.192
X143.128Y-114.592
T5
X122.174Y-83.82
X124.714Y-83.82
X127.254Y-83.82
T6
X123.112Y-54.998
X123.112Y-76.998
X145.112Y-54.998
X145.112Y-76.998
M30
