%TF.GenerationSoftware,KiCad,Pcbnew,9.0.6*%
%TF.CreationDate,2025-12-11T14:53:55+06:00*%
%TF.ProjectId,.WAV player,2e574156-2070-46c6-9179-65722e6b6963,rev?*%
%TF.SameCoordinates,Original*%
%TF.FileFunction,Legend,Top*%
%TF.FilePolarity,Positive*%
%FSLAX46Y46*%
G04 Gerber Fmt 4.6, Leading zero omitted, Abs format (unit mm)*
G04 Created by KiCad (PCBNEW 9.0.6) date 2025-12-11 14:53:55*
%MOMM*%
%LPD*%
G01*
G04 APERTURE LIST*
%ADD10C,0.250000*%
%ADD11C,0.150000*%
%ADD12C,0.100000*%
%ADD13C,0.127000*%
%ADD14C,0.200000*%
%ADD15C,0.000000*%
G04 APERTURE END LIST*
D10*
X99446663Y-55487574D02*
X99446663Y-53487574D01*
X100399044Y-55487574D02*
X100399044Y-54154240D01*
X100399044Y-54344716D02*
X100494282Y-54249478D01*
X100494282Y-54249478D02*
X100684758Y-54154240D01*
X100684758Y-54154240D02*
X100970473Y-54154240D01*
X100970473Y-54154240D02*
X101160949Y-54249478D01*
X101160949Y-54249478D02*
X101256187Y-54439955D01*
X101256187Y-54439955D02*
X101256187Y-55487574D01*
X101256187Y-54439955D02*
X101351425Y-54249478D01*
X101351425Y-54249478D02*
X101541901Y-54154240D01*
X101541901Y-54154240D02*
X101827615Y-54154240D01*
X101827615Y-54154240D02*
X102018092Y-54249478D01*
X102018092Y-54249478D02*
X102113330Y-54439955D01*
X102113330Y-54439955D02*
X102113330Y-55487574D01*
X103065711Y-55487574D02*
X103065711Y-54154240D01*
X103065711Y-54535193D02*
X103160949Y-54344716D01*
X103160949Y-54344716D02*
X103256187Y-54249478D01*
X103256187Y-54249478D02*
X103446663Y-54154240D01*
X103446663Y-54154240D02*
X103637140Y-54154240D01*
X105160949Y-55487574D02*
X105160949Y-54439955D01*
X105160949Y-54439955D02*
X105065711Y-54249478D01*
X105065711Y-54249478D02*
X104875235Y-54154240D01*
X104875235Y-54154240D02*
X104494282Y-54154240D01*
X104494282Y-54154240D02*
X104303806Y-54249478D01*
X105160949Y-55392336D02*
X104970473Y-55487574D01*
X104970473Y-55487574D02*
X104494282Y-55487574D01*
X104494282Y-55487574D02*
X104303806Y-55392336D01*
X104303806Y-55392336D02*
X104208568Y-55201859D01*
X104208568Y-55201859D02*
X104208568Y-55011383D01*
X104208568Y-55011383D02*
X104303806Y-54820907D01*
X104303806Y-54820907D02*
X104494282Y-54725669D01*
X104494282Y-54725669D02*
X104970473Y-54725669D01*
X104970473Y-54725669D02*
X105160949Y-54630431D01*
X106113330Y-54154240D02*
X106113330Y-55487574D01*
X106113330Y-54344716D02*
X106208568Y-54249478D01*
X106208568Y-54249478D02*
X106399044Y-54154240D01*
X106399044Y-54154240D02*
X106684759Y-54154240D01*
X106684759Y-54154240D02*
X106875235Y-54249478D01*
X106875235Y-54249478D02*
X106970473Y-54439955D01*
X106970473Y-54439955D02*
X106970473Y-55487574D01*
X108018092Y-53487574D02*
X107827616Y-53868526D01*
X108779997Y-55392336D02*
X108970473Y-55487574D01*
X108970473Y-55487574D02*
X109351425Y-55487574D01*
X109351425Y-55487574D02*
X109541902Y-55392336D01*
X109541902Y-55392336D02*
X109637140Y-55201859D01*
X109637140Y-55201859D02*
X109637140Y-55106621D01*
X109637140Y-55106621D02*
X109541902Y-54916145D01*
X109541902Y-54916145D02*
X109351425Y-54820907D01*
X109351425Y-54820907D02*
X109065711Y-54820907D01*
X109065711Y-54820907D02*
X108875235Y-54725669D01*
X108875235Y-54725669D02*
X108779997Y-54535193D01*
X108779997Y-54535193D02*
X108779997Y-54439955D01*
X108779997Y-54439955D02*
X108875235Y-54249478D01*
X108875235Y-54249478D02*
X109065711Y-54154240D01*
X109065711Y-54154240D02*
X109351425Y-54154240D01*
X109351425Y-54154240D02*
X109541902Y-54249478D01*
X99732377Y-57564604D02*
X99541901Y-57469366D01*
X99541901Y-57469366D02*
X99446663Y-57374128D01*
X99446663Y-57374128D02*
X99351425Y-57183652D01*
X99351425Y-57183652D02*
X99351425Y-57088414D01*
X99351425Y-57088414D02*
X99446663Y-56897938D01*
X99446663Y-56897938D02*
X99541901Y-56802700D01*
X99541901Y-56802700D02*
X99732377Y-56707462D01*
X99732377Y-56707462D02*
X100113330Y-56707462D01*
X100113330Y-56707462D02*
X100303806Y-56802700D01*
X100303806Y-56802700D02*
X100399044Y-56897938D01*
X100399044Y-56897938D02*
X100494282Y-57088414D01*
X100494282Y-57088414D02*
X100494282Y-57183652D01*
X100494282Y-57183652D02*
X100399044Y-57374128D01*
X100399044Y-57374128D02*
X100303806Y-57469366D01*
X100303806Y-57469366D02*
X100113330Y-57564604D01*
X100113330Y-57564604D02*
X99732377Y-57564604D01*
X99732377Y-57564604D02*
X99541901Y-57659843D01*
X99541901Y-57659843D02*
X99446663Y-57755081D01*
X99446663Y-57755081D02*
X99351425Y-57945557D01*
X99351425Y-57945557D02*
X99351425Y-58326509D01*
X99351425Y-58326509D02*
X99446663Y-58516985D01*
X99446663Y-58516985D02*
X99541901Y-58612224D01*
X99541901Y-58612224D02*
X99732377Y-58707462D01*
X99732377Y-58707462D02*
X100113330Y-58707462D01*
X100113330Y-58707462D02*
X100303806Y-58612224D01*
X100303806Y-58612224D02*
X100399044Y-58516985D01*
X100399044Y-58516985D02*
X100494282Y-58326509D01*
X100494282Y-58326509D02*
X100494282Y-57945557D01*
X100494282Y-57945557D02*
X100399044Y-57755081D01*
X100399044Y-57755081D02*
X100303806Y-57659843D01*
X100303806Y-57659843D02*
X100113330Y-57564604D01*
X102875235Y-58707462D02*
X102875235Y-56707462D01*
X102875235Y-57469366D02*
X103065711Y-57374128D01*
X103065711Y-57374128D02*
X103446664Y-57374128D01*
X103446664Y-57374128D02*
X103637140Y-57469366D01*
X103637140Y-57469366D02*
X103732378Y-57564604D01*
X103732378Y-57564604D02*
X103827616Y-57755081D01*
X103827616Y-57755081D02*
X103827616Y-58326509D01*
X103827616Y-58326509D02*
X103732378Y-58516985D01*
X103732378Y-58516985D02*
X103637140Y-58612224D01*
X103637140Y-58612224D02*
X103446664Y-58707462D01*
X103446664Y-58707462D02*
X103065711Y-58707462D01*
X103065711Y-58707462D02*
X102875235Y-58612224D01*
X104684759Y-58707462D02*
X104684759Y-57374128D01*
X104684759Y-56707462D02*
X104589521Y-56802700D01*
X104589521Y-56802700D02*
X104684759Y-56897938D01*
X104684759Y-56897938D02*
X104779997Y-56802700D01*
X104779997Y-56802700D02*
X104684759Y-56707462D01*
X104684759Y-56707462D02*
X104684759Y-56897938D01*
X105351426Y-57374128D02*
X106113330Y-57374128D01*
X105637140Y-56707462D02*
X105637140Y-58421747D01*
X105637140Y-58421747D02*
X105732378Y-58612224D01*
X105732378Y-58612224D02*
X105922854Y-58707462D01*
X105922854Y-58707462D02*
X106113330Y-58707462D01*
X109160950Y-57374128D02*
X109160950Y-58707462D01*
X108684759Y-56612224D02*
X108208569Y-58040795D01*
X108208569Y-58040795D02*
X109446664Y-58040795D01*
X111065712Y-57374128D02*
X111065712Y-58707462D01*
X110589521Y-56612224D02*
X110113331Y-58040795D01*
X110113331Y-58040795D02*
X111351426Y-58040795D01*
X112113331Y-58516985D02*
X112208569Y-58612224D01*
X112208569Y-58612224D02*
X112113331Y-58707462D01*
X112113331Y-58707462D02*
X112018093Y-58612224D01*
X112018093Y-58612224D02*
X112113331Y-58516985D01*
X112113331Y-58516985D02*
X112113331Y-58707462D01*
X114113331Y-58707462D02*
X112970474Y-58707462D01*
X113541902Y-58707462D02*
X113541902Y-56707462D01*
X113541902Y-56707462D02*
X113351426Y-56993176D01*
X113351426Y-56993176D02*
X113160950Y-57183652D01*
X113160950Y-57183652D02*
X112970474Y-57278890D01*
X114970474Y-58707462D02*
X114970474Y-56707462D01*
X116113331Y-58707462D02*
X115256188Y-57564604D01*
X116113331Y-56707462D02*
X114970474Y-57850319D01*
X116970474Y-58707462D02*
X116970474Y-56707462D01*
X117827617Y-58707462D02*
X117827617Y-57659843D01*
X117827617Y-57659843D02*
X117732379Y-57469366D01*
X117732379Y-57469366D02*
X117541903Y-57374128D01*
X117541903Y-57374128D02*
X117256188Y-57374128D01*
X117256188Y-57374128D02*
X117065712Y-57469366D01*
X117065712Y-57469366D02*
X116970474Y-57564604D01*
X118589522Y-57374128D02*
X119637141Y-57374128D01*
X119637141Y-57374128D02*
X118589522Y-58707462D01*
X118589522Y-58707462D02*
X119637141Y-58707462D01*
X99446663Y-61927350D02*
X99446663Y-60594016D01*
X99446663Y-60784492D02*
X99541901Y-60689254D01*
X99541901Y-60689254D02*
X99732377Y-60594016D01*
X99732377Y-60594016D02*
X100018092Y-60594016D01*
X100018092Y-60594016D02*
X100208568Y-60689254D01*
X100208568Y-60689254D02*
X100303806Y-60879731D01*
X100303806Y-60879731D02*
X100303806Y-61927350D01*
X100303806Y-60879731D02*
X100399044Y-60689254D01*
X100399044Y-60689254D02*
X100589520Y-60594016D01*
X100589520Y-60594016D02*
X100875234Y-60594016D01*
X100875234Y-60594016D02*
X101065711Y-60689254D01*
X101065711Y-60689254D02*
X101160949Y-60879731D01*
X101160949Y-60879731D02*
X101160949Y-61927350D01*
X102399044Y-61927350D02*
X102208568Y-61832112D01*
X102208568Y-61832112D02*
X102113330Y-61736873D01*
X102113330Y-61736873D02*
X102018092Y-61546397D01*
X102018092Y-61546397D02*
X102018092Y-60974969D01*
X102018092Y-60974969D02*
X102113330Y-60784492D01*
X102113330Y-60784492D02*
X102208568Y-60689254D01*
X102208568Y-60689254D02*
X102399044Y-60594016D01*
X102399044Y-60594016D02*
X102684759Y-60594016D01*
X102684759Y-60594016D02*
X102875235Y-60689254D01*
X102875235Y-60689254D02*
X102970473Y-60784492D01*
X102970473Y-60784492D02*
X103065711Y-60974969D01*
X103065711Y-60974969D02*
X103065711Y-61546397D01*
X103065711Y-61546397D02*
X102970473Y-61736873D01*
X102970473Y-61736873D02*
X102875235Y-61832112D01*
X102875235Y-61832112D02*
X102684759Y-61927350D01*
X102684759Y-61927350D02*
X102399044Y-61927350D01*
X103922854Y-60594016D02*
X103922854Y-61927350D01*
X103922854Y-60784492D02*
X104018092Y-60689254D01*
X104018092Y-60689254D02*
X104208568Y-60594016D01*
X104208568Y-60594016D02*
X104494283Y-60594016D01*
X104494283Y-60594016D02*
X104684759Y-60689254D01*
X104684759Y-60689254D02*
X104779997Y-60879731D01*
X104779997Y-60879731D02*
X104779997Y-61927350D01*
X106018092Y-61927350D02*
X105827616Y-61832112D01*
X105827616Y-61832112D02*
X105732378Y-61736873D01*
X105732378Y-61736873D02*
X105637140Y-61546397D01*
X105637140Y-61546397D02*
X105637140Y-60974969D01*
X105637140Y-60974969D02*
X105732378Y-60784492D01*
X105732378Y-60784492D02*
X105827616Y-60689254D01*
X105827616Y-60689254D02*
X106018092Y-60594016D01*
X106018092Y-60594016D02*
X106303807Y-60594016D01*
X106303807Y-60594016D02*
X106494283Y-60689254D01*
X106494283Y-60689254D02*
X106589521Y-60784492D01*
X106589521Y-60784492D02*
X106684759Y-60974969D01*
X106684759Y-60974969D02*
X106684759Y-61546397D01*
X106684759Y-61546397D02*
X106589521Y-61736873D01*
X106589521Y-61736873D02*
X106494283Y-61832112D01*
X106494283Y-61832112D02*
X106303807Y-61927350D01*
X106303807Y-61927350D02*
X106018092Y-61927350D01*
X109065712Y-61736873D02*
X109160950Y-61832112D01*
X109160950Y-61832112D02*
X109065712Y-61927350D01*
X109065712Y-61927350D02*
X108970474Y-61832112D01*
X108970474Y-61832112D02*
X109065712Y-61736873D01*
X109065712Y-61736873D02*
X109065712Y-61927350D01*
X109827617Y-59927350D02*
X110303807Y-61927350D01*
X110303807Y-61927350D02*
X110684760Y-60498778D01*
X110684760Y-60498778D02*
X111065712Y-61927350D01*
X111065712Y-61927350D02*
X111541903Y-59927350D01*
X112208569Y-61355921D02*
X113160950Y-61355921D01*
X112018093Y-61927350D02*
X112684759Y-59927350D01*
X112684759Y-59927350D02*
X113351426Y-61927350D01*
X113732379Y-59927350D02*
X114399045Y-61927350D01*
X114399045Y-61927350D02*
X115065712Y-59927350D01*
X99446663Y-63813904D02*
X99446663Y-65813904D01*
X99446663Y-63909142D02*
X99637139Y-63813904D01*
X99637139Y-63813904D02*
X100018092Y-63813904D01*
X100018092Y-63813904D02*
X100208568Y-63909142D01*
X100208568Y-63909142D02*
X100303806Y-64004380D01*
X100303806Y-64004380D02*
X100399044Y-64194857D01*
X100399044Y-64194857D02*
X100399044Y-64766285D01*
X100399044Y-64766285D02*
X100303806Y-64956761D01*
X100303806Y-64956761D02*
X100208568Y-65052000D01*
X100208568Y-65052000D02*
X100018092Y-65147238D01*
X100018092Y-65147238D02*
X99637139Y-65147238D01*
X99637139Y-65147238D02*
X99446663Y-65052000D01*
X101541901Y-65147238D02*
X101351425Y-65052000D01*
X101351425Y-65052000D02*
X101256187Y-64861523D01*
X101256187Y-64861523D02*
X101256187Y-63147238D01*
X103160949Y-65147238D02*
X103160949Y-64099619D01*
X103160949Y-64099619D02*
X103065711Y-63909142D01*
X103065711Y-63909142D02*
X102875235Y-63813904D01*
X102875235Y-63813904D02*
X102494282Y-63813904D01*
X102494282Y-63813904D02*
X102303806Y-63909142D01*
X103160949Y-65052000D02*
X102970473Y-65147238D01*
X102970473Y-65147238D02*
X102494282Y-65147238D01*
X102494282Y-65147238D02*
X102303806Y-65052000D01*
X102303806Y-65052000D02*
X102208568Y-64861523D01*
X102208568Y-64861523D02*
X102208568Y-64671047D01*
X102208568Y-64671047D02*
X102303806Y-64480571D01*
X102303806Y-64480571D02*
X102494282Y-64385333D01*
X102494282Y-64385333D02*
X102970473Y-64385333D01*
X102970473Y-64385333D02*
X103160949Y-64290095D01*
X103922854Y-63813904D02*
X104399044Y-65147238D01*
X104875235Y-63813904D02*
X104399044Y-65147238D01*
X104399044Y-65147238D02*
X104208568Y-65623428D01*
X104208568Y-65623428D02*
X104113330Y-65718666D01*
X104113330Y-65718666D02*
X103922854Y-65813904D01*
X106399045Y-65052000D02*
X106208569Y-65147238D01*
X106208569Y-65147238D02*
X105827616Y-65147238D01*
X105827616Y-65147238D02*
X105637140Y-65052000D01*
X105637140Y-65052000D02*
X105541902Y-64861523D01*
X105541902Y-64861523D02*
X105541902Y-64099619D01*
X105541902Y-64099619D02*
X105637140Y-63909142D01*
X105637140Y-63909142D02*
X105827616Y-63813904D01*
X105827616Y-63813904D02*
X106208569Y-63813904D01*
X106208569Y-63813904D02*
X106399045Y-63909142D01*
X106399045Y-63909142D02*
X106494283Y-64099619D01*
X106494283Y-64099619D02*
X106494283Y-64290095D01*
X106494283Y-64290095D02*
X105541902Y-64480571D01*
X107351426Y-65147238D02*
X107351426Y-63813904D01*
X107351426Y-64194857D02*
X107446664Y-64004380D01*
X107446664Y-64004380D02*
X107541902Y-63909142D01*
X107541902Y-63909142D02*
X107732378Y-63813904D01*
X107732378Y-63813904D02*
X107922855Y-63813904D01*
X110113331Y-64956761D02*
X110208569Y-65052000D01*
X110208569Y-65052000D02*
X110113331Y-65147238D01*
X110113331Y-65147238D02*
X110018093Y-65052000D01*
X110018093Y-65052000D02*
X110113331Y-64956761D01*
X110113331Y-64956761D02*
X110113331Y-65147238D01*
X110113331Y-63909142D02*
X110208569Y-64004380D01*
X110208569Y-64004380D02*
X110113331Y-64099619D01*
X110113331Y-64099619D02*
X110018093Y-64004380D01*
X110018093Y-64004380D02*
X110113331Y-63909142D01*
X110113331Y-63909142D02*
X110113331Y-64099619D01*
X111065712Y-65147238D02*
X111065712Y-63147238D01*
X111065712Y-63147238D02*
X111541902Y-63147238D01*
X111541902Y-63147238D02*
X111827617Y-63242476D01*
X111827617Y-63242476D02*
X112018093Y-63432952D01*
X112018093Y-63432952D02*
X112113331Y-63623428D01*
X112113331Y-63623428D02*
X112208569Y-64004380D01*
X112208569Y-64004380D02*
X112208569Y-64290095D01*
X112208569Y-64290095D02*
X112113331Y-64671047D01*
X112113331Y-64671047D02*
X112018093Y-64861523D01*
X112018093Y-64861523D02*
X111827617Y-65052000D01*
X111827617Y-65052000D02*
X111541902Y-65147238D01*
X111541902Y-65147238D02*
X111065712Y-65147238D01*
D11*
X125334761Y-88138057D02*
X125239523Y-88090438D01*
X125239523Y-88090438D02*
X125144285Y-87995200D01*
X125144285Y-87995200D02*
X125001428Y-87852342D01*
X125001428Y-87852342D02*
X124906190Y-87804723D01*
X124906190Y-87804723D02*
X124810952Y-87804723D01*
X124858571Y-88042819D02*
X124763333Y-87995200D01*
X124763333Y-87995200D02*
X124668095Y-87899961D01*
X124668095Y-87899961D02*
X124620476Y-87709485D01*
X124620476Y-87709485D02*
X124620476Y-87376152D01*
X124620476Y-87376152D02*
X124668095Y-87185676D01*
X124668095Y-87185676D02*
X124763333Y-87090438D01*
X124763333Y-87090438D02*
X124858571Y-87042819D01*
X124858571Y-87042819D02*
X125049047Y-87042819D01*
X125049047Y-87042819D02*
X125144285Y-87090438D01*
X125144285Y-87090438D02*
X125239523Y-87185676D01*
X125239523Y-87185676D02*
X125287142Y-87376152D01*
X125287142Y-87376152D02*
X125287142Y-87709485D01*
X125287142Y-87709485D02*
X125239523Y-87899961D01*
X125239523Y-87899961D02*
X125144285Y-87995200D01*
X125144285Y-87995200D02*
X125049047Y-88042819D01*
X125049047Y-88042819D02*
X124858571Y-88042819D01*
X126239523Y-88042819D02*
X125668095Y-88042819D01*
X125953809Y-88042819D02*
X125953809Y-87042819D01*
X125953809Y-87042819D02*
X125858571Y-87185676D01*
X125858571Y-87185676D02*
X125763333Y-87280914D01*
X125763333Y-87280914D02*
X125668095Y-87328533D01*
X153948333Y-109005200D02*
X154148333Y-109071866D01*
X154148333Y-109071866D02*
X154481667Y-109071866D01*
X154481667Y-109071866D02*
X154615000Y-109005200D01*
X154615000Y-109005200D02*
X154681667Y-108938533D01*
X154681667Y-108938533D02*
X154748333Y-108805200D01*
X154748333Y-108805200D02*
X154748333Y-108671866D01*
X154748333Y-108671866D02*
X154681667Y-108538533D01*
X154681667Y-108538533D02*
X154615000Y-108471866D01*
X154615000Y-108471866D02*
X154481667Y-108405200D01*
X154481667Y-108405200D02*
X154215000Y-108338533D01*
X154215000Y-108338533D02*
X154081667Y-108271866D01*
X154081667Y-108271866D02*
X154015000Y-108205200D01*
X154015000Y-108205200D02*
X153948333Y-108071866D01*
X153948333Y-108071866D02*
X153948333Y-107938533D01*
X153948333Y-107938533D02*
X154015000Y-107805200D01*
X154015000Y-107805200D02*
X154081667Y-107738533D01*
X154081667Y-107738533D02*
X154215000Y-107671866D01*
X154215000Y-107671866D02*
X154548333Y-107671866D01*
X154548333Y-107671866D02*
X154748333Y-107738533D01*
X156015000Y-107671866D02*
X155348333Y-107671866D01*
X155348333Y-107671866D02*
X155281666Y-108338533D01*
X155281666Y-108338533D02*
X155348333Y-108271866D01*
X155348333Y-108271866D02*
X155481666Y-108205200D01*
X155481666Y-108205200D02*
X155815000Y-108205200D01*
X155815000Y-108205200D02*
X155948333Y-108271866D01*
X155948333Y-108271866D02*
X156015000Y-108338533D01*
X156015000Y-108338533D02*
X156081666Y-108471866D01*
X156081666Y-108471866D02*
X156081666Y-108805200D01*
X156081666Y-108805200D02*
X156015000Y-108938533D01*
X156015000Y-108938533D02*
X155948333Y-109005200D01*
X155948333Y-109005200D02*
X155815000Y-109071866D01*
X155815000Y-109071866D02*
X155481666Y-109071866D01*
X155481666Y-109071866D02*
X155348333Y-109005200D01*
X155348333Y-109005200D02*
X155281666Y-108938533D01*
X153948333Y-78773200D02*
X154148333Y-78839866D01*
X154148333Y-78839866D02*
X154481667Y-78839866D01*
X154481667Y-78839866D02*
X154615000Y-78773200D01*
X154615000Y-78773200D02*
X154681667Y-78706533D01*
X154681667Y-78706533D02*
X154748333Y-78573200D01*
X154748333Y-78573200D02*
X154748333Y-78439866D01*
X154748333Y-78439866D02*
X154681667Y-78306533D01*
X154681667Y-78306533D02*
X154615000Y-78239866D01*
X154615000Y-78239866D02*
X154481667Y-78173200D01*
X154481667Y-78173200D02*
X154215000Y-78106533D01*
X154215000Y-78106533D02*
X154081667Y-78039866D01*
X154081667Y-78039866D02*
X154015000Y-77973200D01*
X154015000Y-77973200D02*
X153948333Y-77839866D01*
X153948333Y-77839866D02*
X153948333Y-77706533D01*
X153948333Y-77706533D02*
X154015000Y-77573200D01*
X154015000Y-77573200D02*
X154081667Y-77506533D01*
X154081667Y-77506533D02*
X154215000Y-77439866D01*
X154215000Y-77439866D02*
X154548333Y-77439866D01*
X154548333Y-77439866D02*
X154748333Y-77506533D01*
X156081666Y-78839866D02*
X155281666Y-78839866D01*
X155681666Y-78839866D02*
X155681666Y-77439866D01*
X155681666Y-77439866D02*
X155548333Y-77639866D01*
X155548333Y-77639866D02*
X155415000Y-77773200D01*
X155415000Y-77773200D02*
X155281666Y-77839866D01*
D12*
X107823095Y-75928419D02*
X107823095Y-76737942D01*
X107823095Y-76737942D02*
X107870714Y-76833180D01*
X107870714Y-76833180D02*
X107918333Y-76880800D01*
X107918333Y-76880800D02*
X108013571Y-76928419D01*
X108013571Y-76928419D02*
X108204047Y-76928419D01*
X108204047Y-76928419D02*
X108299285Y-76880800D01*
X108299285Y-76880800D02*
X108346904Y-76833180D01*
X108346904Y-76833180D02*
X108394523Y-76737942D01*
X108394523Y-76737942D02*
X108394523Y-75928419D01*
X108775476Y-75928419D02*
X109394523Y-75928419D01*
X109394523Y-75928419D02*
X109061190Y-76309371D01*
X109061190Y-76309371D02*
X109204047Y-76309371D01*
X109204047Y-76309371D02*
X109299285Y-76356990D01*
X109299285Y-76356990D02*
X109346904Y-76404609D01*
X109346904Y-76404609D02*
X109394523Y-76499847D01*
X109394523Y-76499847D02*
X109394523Y-76737942D01*
X109394523Y-76737942D02*
X109346904Y-76833180D01*
X109346904Y-76833180D02*
X109299285Y-76880800D01*
X109299285Y-76880800D02*
X109204047Y-76928419D01*
X109204047Y-76928419D02*
X108918333Y-76928419D01*
X108918333Y-76928419D02*
X108823095Y-76880800D01*
X108823095Y-76880800D02*
X108775476Y-76833180D01*
D11*
X98915819Y-111181404D02*
X99725342Y-111181404D01*
X99725342Y-111181404D02*
X99820580Y-111133785D01*
X99820580Y-111133785D02*
X99868200Y-111086166D01*
X99868200Y-111086166D02*
X99915819Y-110990928D01*
X99915819Y-110990928D02*
X99915819Y-110800452D01*
X99915819Y-110800452D02*
X99868200Y-110705214D01*
X99868200Y-110705214D02*
X99820580Y-110657595D01*
X99820580Y-110657595D02*
X99725342Y-110609976D01*
X99725342Y-110609976D02*
X98915819Y-110609976D01*
X99915819Y-109609976D02*
X99915819Y-110181404D01*
X99915819Y-109895690D02*
X98915819Y-109895690D01*
X98915819Y-109895690D02*
X99058676Y-109990928D01*
X99058676Y-109990928D02*
X99153914Y-110086166D01*
X99153914Y-110086166D02*
X99201533Y-110181404D01*
X153948333Y-86331200D02*
X154148333Y-86397866D01*
X154148333Y-86397866D02*
X154481667Y-86397866D01*
X154481667Y-86397866D02*
X154615000Y-86331200D01*
X154615000Y-86331200D02*
X154681667Y-86264533D01*
X154681667Y-86264533D02*
X154748333Y-86131200D01*
X154748333Y-86131200D02*
X154748333Y-85997866D01*
X154748333Y-85997866D02*
X154681667Y-85864533D01*
X154681667Y-85864533D02*
X154615000Y-85797866D01*
X154615000Y-85797866D02*
X154481667Y-85731200D01*
X154481667Y-85731200D02*
X154215000Y-85664533D01*
X154215000Y-85664533D02*
X154081667Y-85597866D01*
X154081667Y-85597866D02*
X154015000Y-85531200D01*
X154015000Y-85531200D02*
X153948333Y-85397866D01*
X153948333Y-85397866D02*
X153948333Y-85264533D01*
X153948333Y-85264533D02*
X154015000Y-85131200D01*
X154015000Y-85131200D02*
X154081667Y-85064533D01*
X154081667Y-85064533D02*
X154215000Y-84997866D01*
X154215000Y-84997866D02*
X154548333Y-84997866D01*
X154548333Y-84997866D02*
X154748333Y-85064533D01*
X155281666Y-85131200D02*
X155348333Y-85064533D01*
X155348333Y-85064533D02*
X155481666Y-84997866D01*
X155481666Y-84997866D02*
X155815000Y-84997866D01*
X155815000Y-84997866D02*
X155948333Y-85064533D01*
X155948333Y-85064533D02*
X156015000Y-85131200D01*
X156015000Y-85131200D02*
X156081666Y-85264533D01*
X156081666Y-85264533D02*
X156081666Y-85397866D01*
X156081666Y-85397866D02*
X156015000Y-85597866D01*
X156015000Y-85597866D02*
X155215000Y-86397866D01*
X155215000Y-86397866D02*
X156081666Y-86397866D01*
X153948333Y-101447200D02*
X154148333Y-101513866D01*
X154148333Y-101513866D02*
X154481667Y-101513866D01*
X154481667Y-101513866D02*
X154615000Y-101447200D01*
X154615000Y-101447200D02*
X154681667Y-101380533D01*
X154681667Y-101380533D02*
X154748333Y-101247200D01*
X154748333Y-101247200D02*
X154748333Y-101113866D01*
X154748333Y-101113866D02*
X154681667Y-100980533D01*
X154681667Y-100980533D02*
X154615000Y-100913866D01*
X154615000Y-100913866D02*
X154481667Y-100847200D01*
X154481667Y-100847200D02*
X154215000Y-100780533D01*
X154215000Y-100780533D02*
X154081667Y-100713866D01*
X154081667Y-100713866D02*
X154015000Y-100647200D01*
X154015000Y-100647200D02*
X153948333Y-100513866D01*
X153948333Y-100513866D02*
X153948333Y-100380533D01*
X153948333Y-100380533D02*
X154015000Y-100247200D01*
X154015000Y-100247200D02*
X154081667Y-100180533D01*
X154081667Y-100180533D02*
X154215000Y-100113866D01*
X154215000Y-100113866D02*
X154548333Y-100113866D01*
X154548333Y-100113866D02*
X154748333Y-100180533D01*
X155948333Y-100580533D02*
X155948333Y-101513866D01*
X155615000Y-100047200D02*
X155281666Y-101047200D01*
X155281666Y-101047200D02*
X156148333Y-101047200D01*
X153948333Y-93889200D02*
X154148333Y-93955866D01*
X154148333Y-93955866D02*
X154481667Y-93955866D01*
X154481667Y-93955866D02*
X154615000Y-93889200D01*
X154615000Y-93889200D02*
X154681667Y-93822533D01*
X154681667Y-93822533D02*
X154748333Y-93689200D01*
X154748333Y-93689200D02*
X154748333Y-93555866D01*
X154748333Y-93555866D02*
X154681667Y-93422533D01*
X154681667Y-93422533D02*
X154615000Y-93355866D01*
X154615000Y-93355866D02*
X154481667Y-93289200D01*
X154481667Y-93289200D02*
X154215000Y-93222533D01*
X154215000Y-93222533D02*
X154081667Y-93155866D01*
X154081667Y-93155866D02*
X154015000Y-93089200D01*
X154015000Y-93089200D02*
X153948333Y-92955866D01*
X153948333Y-92955866D02*
X153948333Y-92822533D01*
X153948333Y-92822533D02*
X154015000Y-92689200D01*
X154015000Y-92689200D02*
X154081667Y-92622533D01*
X154081667Y-92622533D02*
X154215000Y-92555866D01*
X154215000Y-92555866D02*
X154548333Y-92555866D01*
X154548333Y-92555866D02*
X154748333Y-92622533D01*
X155215000Y-92555866D02*
X156081666Y-92555866D01*
X156081666Y-92555866D02*
X155615000Y-93089200D01*
X155615000Y-93089200D02*
X155815000Y-93089200D01*
X155815000Y-93089200D02*
X155948333Y-93155866D01*
X155948333Y-93155866D02*
X156015000Y-93222533D01*
X156015000Y-93222533D02*
X156081666Y-93355866D01*
X156081666Y-93355866D02*
X156081666Y-93689200D01*
X156081666Y-93689200D02*
X156015000Y-93822533D01*
X156015000Y-93822533D02*
X155948333Y-93889200D01*
X155948333Y-93889200D02*
X155815000Y-93955866D01*
X155815000Y-93955866D02*
X155415000Y-93955866D01*
X155415000Y-93955866D02*
X155281666Y-93889200D01*
X155281666Y-93889200D02*
X155215000Y-93822533D01*
X135590633Y-80725580D02*
X135543014Y-80773200D01*
X135543014Y-80773200D02*
X135400157Y-80820819D01*
X135400157Y-80820819D02*
X135304919Y-80820819D01*
X135304919Y-80820819D02*
X135162062Y-80773200D01*
X135162062Y-80773200D02*
X135066824Y-80677961D01*
X135066824Y-80677961D02*
X135019205Y-80582723D01*
X135019205Y-80582723D02*
X134971586Y-80392247D01*
X134971586Y-80392247D02*
X134971586Y-80249390D01*
X134971586Y-80249390D02*
X135019205Y-80058914D01*
X135019205Y-80058914D02*
X135066824Y-79963676D01*
X135066824Y-79963676D02*
X135162062Y-79868438D01*
X135162062Y-79868438D02*
X135304919Y-79820819D01*
X135304919Y-79820819D02*
X135400157Y-79820819D01*
X135400157Y-79820819D02*
X135543014Y-79868438D01*
X135543014Y-79868438D02*
X135590633Y-79916057D01*
X136543014Y-80820819D02*
X135971586Y-80820819D01*
X136257300Y-80820819D02*
X136257300Y-79820819D01*
X136257300Y-79820819D02*
X136162062Y-79963676D01*
X136162062Y-79963676D02*
X136066824Y-80058914D01*
X136066824Y-80058914D02*
X135971586Y-80106533D01*
X133096095Y-58382819D02*
X133096095Y-59192342D01*
X133096095Y-59192342D02*
X133143714Y-59287580D01*
X133143714Y-59287580D02*
X133191333Y-59335200D01*
X133191333Y-59335200D02*
X133286571Y-59382819D01*
X133286571Y-59382819D02*
X133477047Y-59382819D01*
X133477047Y-59382819D02*
X133572285Y-59335200D01*
X133572285Y-59335200D02*
X133619904Y-59287580D01*
X133619904Y-59287580D02*
X133667523Y-59192342D01*
X133667523Y-59192342D02*
X133667523Y-58382819D01*
X134096095Y-58478057D02*
X134143714Y-58430438D01*
X134143714Y-58430438D02*
X134238952Y-58382819D01*
X134238952Y-58382819D02*
X134477047Y-58382819D01*
X134477047Y-58382819D02*
X134572285Y-58430438D01*
X134572285Y-58430438D02*
X134619904Y-58478057D01*
X134619904Y-58478057D02*
X134667523Y-58573295D01*
X134667523Y-58573295D02*
X134667523Y-58668533D01*
X134667523Y-58668533D02*
X134619904Y-58811390D01*
X134619904Y-58811390D02*
X134048476Y-59382819D01*
X134048476Y-59382819D02*
X134667523Y-59382819D01*
D12*
X149352095Y-57012419D02*
X149352095Y-57821942D01*
X149352095Y-57821942D02*
X149399714Y-57917180D01*
X149399714Y-57917180D02*
X149447333Y-57964800D01*
X149447333Y-57964800D02*
X149542571Y-58012419D01*
X149542571Y-58012419D02*
X149733047Y-58012419D01*
X149733047Y-58012419D02*
X149828285Y-57964800D01*
X149828285Y-57964800D02*
X149875904Y-57917180D01*
X149875904Y-57917180D02*
X149923523Y-57821942D01*
X149923523Y-57821942D02*
X149923523Y-57012419D01*
X150828285Y-57345752D02*
X150828285Y-58012419D01*
X150590190Y-56964800D02*
X150352095Y-57679085D01*
X150352095Y-57679085D02*
X150971142Y-57679085D01*
D13*
%TO.C,Q1*%
X119214000Y-80920000D02*
X130214000Y-80920000D01*
X119214000Y-82020000D02*
X119214000Y-80920000D01*
X119214000Y-82020000D02*
X130214000Y-82020000D01*
X119214000Y-86720000D02*
X119214000Y-82020000D01*
X130214000Y-80920000D02*
X130214000Y-82020000D01*
X130214000Y-82020000D02*
X130214000Y-86720000D01*
X130214000Y-86720000D02*
X119214000Y-86720000D01*
%TO.C,S5*%
X152650000Y-111948500D02*
X152650000Y-114313500D01*
X153467500Y-110131000D02*
X157832500Y-110131000D01*
X153467500Y-116131000D02*
X157832500Y-116131000D01*
X158650000Y-111948500D02*
X158650000Y-114313500D01*
D14*
X151000000Y-115381000D02*
G75*
G02*
X150800000Y-115381000I-100000J0D01*
G01*
X150800000Y-115381000D02*
G75*
G02*
X151000000Y-115381000I100000J0D01*
G01*
D13*
%TO.C,S1*%
X152650000Y-81716500D02*
X152650000Y-84081500D01*
X153467500Y-79899000D02*
X157832500Y-79899000D01*
X153467500Y-85899000D02*
X157832500Y-85899000D01*
X158650000Y-81716500D02*
X158650000Y-84081500D01*
D14*
X151000000Y-85149000D02*
G75*
G02*
X150800000Y-85149000I-100000J0D01*
G01*
X150800000Y-85149000D02*
G75*
G02*
X151000000Y-85149000I100000J0D01*
G01*
%TO.C,U3*%
D12*
X98334000Y-86962000D02*
X115334000Y-86962000D01*
X115334000Y-69962000D01*
X98334000Y-69962000D01*
X98334000Y-86962000D01*
X115334000Y-84962000D02*
X118334000Y-84962000D01*
X118334000Y-71962000D01*
X115334000Y-71962000D01*
X115334000Y-84962000D01*
D13*
%TO.C,U1*%
X97608000Y-87662000D02*
X148558000Y-87662000D01*
X97608000Y-87662000D02*
X148558000Y-87662000D01*
X97608000Y-98392000D02*
X97608000Y-87662000D01*
X97608000Y-105103000D02*
X97608000Y-98392000D01*
X97608000Y-116172000D02*
X97608000Y-87662000D01*
X97608000Y-116172000D02*
X97608000Y-105103000D01*
X148558000Y-87662000D02*
X148558000Y-116172000D01*
X148558000Y-93112000D02*
X148558000Y-87662000D01*
X148558000Y-110802000D02*
X148558000Y-93112000D01*
X148558000Y-116172000D02*
X97608000Y-116172000D01*
X148558000Y-116172000D02*
X97608000Y-116172000D01*
X148558000Y-116172000D02*
X148558000Y-110802000D01*
D14*
X107668000Y-116742000D02*
G75*
G02*
X107468000Y-116742000I-100000J0D01*
G01*
X107468000Y-116742000D02*
G75*
G02*
X107668000Y-116742000I100000J0D01*
G01*
D15*
%TO.C,G\u002A\u002A\u002A*%
G36*
X153587097Y-74372275D02*
G01*
X153582929Y-74376443D01*
X153578761Y-74372275D01*
X153582929Y-74368107D01*
X153587097Y-74372275D01*
G37*
G36*
X154022657Y-67507914D02*
G01*
X157225791Y-67508305D01*
X157196615Y-67530838D01*
X157165635Y-67556876D01*
X157135775Y-67586964D01*
X157103708Y-67624709D01*
X157071574Y-67666383D01*
X157046970Y-67697974D01*
X157016861Y-67734153D01*
X156979824Y-67776535D01*
X156934435Y-67826735D01*
X156879271Y-67886365D01*
X156851551Y-67915990D01*
X156828088Y-67942072D01*
X156805743Y-67968648D01*
X156794809Y-67982678D01*
X156779614Y-68001251D01*
X156756327Y-68027395D01*
X156728706Y-68056955D01*
X156711842Y-68074375D01*
X156671888Y-68115478D01*
X156629374Y-68159973D01*
X156586278Y-68205716D01*
X156544573Y-68250566D01*
X156506238Y-68292380D01*
X156473249Y-68329016D01*
X156447580Y-68358331D01*
X156431210Y-68378183D01*
X156429504Y-68380449D01*
X156409533Y-68404091D01*
X156383356Y-68430653D01*
X156365720Y-68446565D01*
X156341774Y-68469166D01*
X156312981Y-68499725D01*
X156284399Y-68532790D01*
X156275479Y-68543823D01*
X156253192Y-68571006D01*
X156234148Y-68592454D01*
X156221010Y-68605260D01*
X156217127Y-68607584D01*
X156206367Y-68613955D01*
X156185966Y-68631329D01*
X156157355Y-68658245D01*
X156121963Y-68693242D01*
X156081221Y-68734856D01*
X156036558Y-68781627D01*
X155989405Y-68832092D01*
X155941191Y-68884790D01*
X155893348Y-68938258D01*
X155890637Y-68941326D01*
X155855533Y-68980048D01*
X155812446Y-69025973D01*
X155765475Y-69074823D01*
X155718724Y-69122315D01*
X155688543Y-69152245D01*
X155652500Y-69187822D01*
X155620911Y-69219522D01*
X155595590Y-69245481D01*
X155578352Y-69263836D01*
X155571009Y-69272725D01*
X155570874Y-69273118D01*
X155564582Y-69280546D01*
X155548094Y-69294996D01*
X155524671Y-69313650D01*
X155518773Y-69318142D01*
X155496330Y-69336484D01*
X155464990Y-69364016D01*
X155427626Y-69398117D01*
X155387107Y-69436166D01*
X155346305Y-69475543D01*
X155345300Y-69476527D01*
X155286830Y-69533679D01*
X155234722Y-69584280D01*
X155189901Y-69627451D01*
X155153292Y-69662308D01*
X155125822Y-69687972D01*
X155108414Y-69703559D01*
X155102111Y-69708245D01*
X155095509Y-69713781D01*
X155079174Y-69729051D01*
X155055207Y-69752047D01*
X155025712Y-69780760D01*
X155007980Y-69798177D01*
X154965324Y-69839684D01*
X154918304Y-69884566D01*
X154869816Y-69930131D01*
X154822757Y-69973690D01*
X154780024Y-70012553D01*
X154744515Y-70044030D01*
X154727754Y-70058359D01*
X154706574Y-70076719D01*
X154681204Y-70099582D01*
X154669455Y-70110460D01*
X154650573Y-70127683D01*
X154637176Y-70139036D01*
X154633110Y-70141720D01*
X154626309Y-70147167D01*
X154610171Y-70161925D01*
X154587248Y-70183617D01*
X154565018Y-70205071D01*
X154509583Y-70258513D01*
X154458465Y-70306844D01*
X154413501Y-70348368D01*
X154376527Y-70381389D01*
X154349381Y-70404212D01*
X154349262Y-70404306D01*
X154328663Y-70420938D01*
X154312882Y-70434206D01*
X154308777Y-70437909D01*
X154293806Y-70451401D01*
X154269165Y-70472671D01*
X154238120Y-70498981D01*
X154203938Y-70527592D01*
X154169886Y-70555766D01*
X154139232Y-70580766D01*
X154120116Y-70596036D01*
X154090193Y-70620089D01*
X154061141Y-70644262D01*
X154038899Y-70663607D01*
X154037623Y-70664769D01*
X154018291Y-70680744D01*
X154002892Y-70690477D01*
X153998343Y-70691861D01*
X153987048Y-70696420D01*
X153985839Y-70698242D01*
X153978349Y-70705674D01*
X153960484Y-70720470D01*
X153935318Y-70740138D01*
X153918456Y-70752894D01*
X153890775Y-70774303D01*
X153869023Y-70792475D01*
X153856124Y-70804894D01*
X153853851Y-70808511D01*
X153847064Y-70816908D01*
X153839263Y-70820611D01*
X153825349Y-70828617D01*
X153804618Y-70844298D01*
X153787832Y-70858685D01*
X153766389Y-70876567D01*
X153748750Y-70888648D01*
X153740541Y-70891966D01*
X153728270Y-70897384D01*
X153710942Y-70910816D01*
X153706527Y-70914956D01*
X153684894Y-70932247D01*
X153656351Y-70950390D01*
X153641282Y-70958440D01*
X153616667Y-70971473D01*
X153587953Y-70988612D01*
X153553014Y-71011247D01*
X153509725Y-71040769D01*
X153455961Y-71078568D01*
X153436683Y-71092292D01*
X153409790Y-71111071D01*
X153388162Y-71125407D01*
X153375256Y-71133040D01*
X153373369Y-71133712D01*
X153364570Y-71139196D01*
X153350705Y-71152410D01*
X153350475Y-71152657D01*
X153330770Y-71169105D01*
X153305850Y-71184320D01*
X153302735Y-71185847D01*
X153280475Y-71198261D01*
X153264048Y-71210678D01*
X153262118Y-71212751D01*
X153249884Y-71223325D01*
X153243960Y-71225409D01*
X153232404Y-71230046D01*
X153214190Y-71241153D01*
X153195462Y-71254523D01*
X153182368Y-71265949D01*
X153180019Y-71269173D01*
X153170420Y-71275050D01*
X153166648Y-71275425D01*
X153153602Y-71280658D01*
X153136467Y-71293335D01*
X153135530Y-71294182D01*
X153115484Y-71309709D01*
X153089018Y-71326859D01*
X153078044Y-71333154D01*
X153047353Y-71351682D01*
X153015901Y-71373229D01*
X153007740Y-71379389D01*
X152979548Y-71400307D01*
X152949523Y-71421035D01*
X152941052Y-71426531D01*
X152912914Y-71444576D01*
X152881681Y-71464916D01*
X152870942Y-71471992D01*
X152812914Y-71508798D01*
X152756662Y-71540677D01*
X152730566Y-71554324D01*
X152707150Y-71567529D01*
X152691269Y-71578795D01*
X152686802Y-71584473D01*
X152679664Y-71590280D01*
X152665962Y-71592196D01*
X152650296Y-71595049D01*
X152645121Y-71600532D01*
X152638318Y-71607804D01*
X152631848Y-71608868D01*
X152616254Y-71613763D01*
X152597391Y-71625531D01*
X152597380Y-71625540D01*
X152579632Y-71637216D01*
X152566280Y-71642210D01*
X152566097Y-71642212D01*
X152553393Y-71647888D01*
X152540921Y-71658884D01*
X152524263Y-71671530D01*
X152510944Y-71675557D01*
X152495528Y-71679701D01*
X152490904Y-71683893D01*
X152479054Y-71691090D01*
X152470864Y-71692229D01*
X152454288Y-71698066D01*
X152440888Y-71708901D01*
X152425698Y-71721440D01*
X152414588Y-71725573D01*
X152404343Y-71729980D01*
X152403375Y-71732981D01*
X152396105Y-71739287D01*
X152378278Y-71745050D01*
X152375037Y-71745706D01*
X152352641Y-71752792D01*
X152337022Y-71762714D01*
X152336504Y-71763306D01*
X152320290Y-71773870D01*
X152311150Y-71775589D01*
X152296017Y-71779076D01*
X152291545Y-71782782D01*
X152281453Y-71789151D01*
X152261022Y-71797000D01*
X152249531Y-71800493D01*
X152224865Y-71809202D01*
X152206590Y-71818866D01*
X152202448Y-71822477D01*
X152190288Y-71832382D01*
X152185022Y-71833942D01*
X152173236Y-71839261D01*
X152164619Y-71846434D01*
X152146954Y-71857933D01*
X152129786Y-71864200D01*
X152107525Y-71872908D01*
X152083847Y-71886877D01*
X152082437Y-71887899D01*
X152063142Y-71898721D01*
X152033966Y-71911402D01*
X152000335Y-71923991D01*
X151967675Y-71934541D01*
X151941414Y-71941101D01*
X151930984Y-71942311D01*
X151920823Y-71947300D01*
X151919884Y-71950647D01*
X151912762Y-71956957D01*
X151899436Y-71958983D01*
X151874624Y-71962279D01*
X151859839Y-71966755D01*
X151841563Y-71973272D01*
X151814038Y-71982112D01*
X151790674Y-71989158D01*
X151763873Y-71997568D01*
X151744152Y-72004818D01*
X151736490Y-72008828D01*
X151726609Y-72013936D01*
X151706375Y-72021086D01*
X151694810Y-72024566D01*
X151666026Y-72033922D01*
X151639857Y-72044245D01*
X151633698Y-72047141D01*
X151613318Y-72055607D01*
X151598269Y-72059016D01*
X151587617Y-72063739D01*
X151586441Y-72067352D01*
X151579339Y-72073733D01*
X151566621Y-72075688D01*
X151547108Y-72080217D01*
X151537288Y-72087152D01*
X151523382Y-72095709D01*
X151500611Y-72102766D01*
X151493761Y-72104054D01*
X151469107Y-72110372D01*
X151450484Y-72119243D01*
X151447694Y-72121547D01*
X151432230Y-72131107D01*
X151408408Y-72140202D01*
X151400588Y-72142371D01*
X151370734Y-72151192D01*
X151342341Y-72161623D01*
X151338160Y-72163431D01*
X151316390Y-72171748D01*
X151299728Y-72175674D01*
X151298564Y-72175721D01*
X151287647Y-72179916D01*
X151286342Y-72183324D01*
X151278984Y-72189318D01*
X151260592Y-72195078D01*
X151252998Y-72196561D01*
X151232169Y-72201595D01*
X151220535Y-72207349D01*
X151219654Y-72209065D01*
X151212300Y-72214599D01*
X151193916Y-72220102D01*
X151186310Y-72221569D01*
X151165483Y-72226513D01*
X151153848Y-72232042D01*
X151152965Y-72233667D01*
X151145507Y-72238635D01*
X151126094Y-72245095D01*
X151102949Y-72250745D01*
X151076759Y-72257178D01*
X151058653Y-72263298D01*
X151052932Y-72267230D01*
X151045499Y-72271981D01*
X151026220Y-72278313D01*
X151005000Y-72283549D01*
X150975682Y-72291112D01*
X150950995Y-72299512D01*
X150940213Y-72304661D01*
X150922195Y-72312257D01*
X150894602Y-72320090D01*
X150864416Y-72326426D01*
X150840363Y-72329445D01*
X150837683Y-72337802D01*
X150835150Y-72361984D01*
X150832806Y-72401145D01*
X150830694Y-72454439D01*
X150828858Y-72521020D01*
X150827672Y-72580020D01*
X150827326Y-72591447D01*
X150826977Y-72586751D01*
X150826625Y-72566480D01*
X150826271Y-72531183D01*
X150825917Y-72481408D01*
X150825565Y-72417704D01*
X150825215Y-72340620D01*
X150824870Y-72250705D01*
X150824530Y-72148506D01*
X150824198Y-72034573D01*
X150823874Y-71909455D01*
X150823560Y-71773700D01*
X150823257Y-71627856D01*
X150822967Y-71472472D01*
X150822692Y-71308097D01*
X150822432Y-71135280D01*
X150822189Y-70954570D01*
X150821964Y-70766514D01*
X150821760Y-70571661D01*
X150821576Y-70370561D01*
X150821420Y-70168812D01*
X150819523Y-67507523D01*
X154022657Y-67507914D01*
G37*
G36*
X159822476Y-72008999D02*
G01*
X159822476Y-76510476D01*
X155320999Y-76510476D01*
X150819523Y-76510476D01*
X150819523Y-76456292D01*
X150819523Y-76402107D01*
X151905295Y-76401018D01*
X152039701Y-76400844D01*
X152170269Y-76400599D01*
X152295944Y-76400290D01*
X152415674Y-76399921D01*
X152528403Y-76399499D01*
X152633077Y-76399028D01*
X152728644Y-76398516D01*
X152814048Y-76397967D01*
X152888235Y-76397388D01*
X152950151Y-76396784D01*
X152998743Y-76396160D01*
X153032956Y-76395524D01*
X153051735Y-76394879D01*
X153053361Y-76394766D01*
X153115654Y-76389603D01*
X153123013Y-76352091D01*
X153128842Y-76328694D01*
X153135037Y-76313077D01*
X153137385Y-76310192D01*
X153142180Y-76300001D01*
X153146614Y-76278888D01*
X153148434Y-76264344D01*
X153154911Y-76218535D01*
X153163845Y-76188442D01*
X153173469Y-76175415D01*
X153178215Y-76164484D01*
X153181125Y-76142452D01*
X153181605Y-76123315D01*
X153182829Y-76093080D01*
X153187686Y-76078562D01*
X153191148Y-76077001D01*
X153198811Y-76068751D01*
X153206663Y-76043973D01*
X153214712Y-76002629D01*
X153222966Y-75944679D01*
X153228017Y-75901943D01*
X153232654Y-75862280D01*
X153238808Y-75812412D01*
X153245688Y-75758643D01*
X153252499Y-75707279D01*
X153252666Y-75706046D01*
X153259185Y-75655692D01*
X153265402Y-75603590D01*
X153270633Y-75555712D01*
X153274198Y-75518031D01*
X153274332Y-75516372D01*
X153277712Y-75484448D01*
X153281824Y-75460773D01*
X153285997Y-75448761D01*
X153287749Y-75448091D01*
X153291627Y-75443004D01*
X153294334Y-75424824D01*
X153295335Y-75397555D01*
X153296570Y-75366548D01*
X153299789Y-75340564D01*
X153303758Y-75326591D01*
X153309169Y-75309967D01*
X153314415Y-75283324D01*
X153317450Y-75260450D01*
X153321379Y-75233979D01*
X153326310Y-75215727D01*
X153330463Y-75210050D01*
X153335571Y-75203106D01*
X153335785Y-75191293D01*
X153337117Y-75170660D01*
X153341155Y-75160033D01*
X153346343Y-75144676D01*
X153350680Y-75119860D01*
X153352091Y-75105940D01*
X153355415Y-75078644D01*
X153360267Y-75056753D01*
X153362797Y-75050219D01*
X153368745Y-75030842D01*
X153370359Y-75014587D01*
X153373452Y-74992073D01*
X153378380Y-74978611D01*
X153384516Y-74962792D01*
X153392668Y-74935686D01*
X153401569Y-74902352D01*
X153409952Y-74867850D01*
X153416549Y-74837236D01*
X153420092Y-74815571D01*
X153420376Y-74811031D01*
X153425798Y-74795529D01*
X153432233Y-74790480D01*
X153440391Y-74779875D01*
X153440182Y-74770832D01*
X153441615Y-74755335D01*
X153449472Y-74731611D01*
X153457466Y-74714054D01*
X153469221Y-74689095D01*
X153476932Y-74669198D01*
X153478693Y-74661414D01*
X153481766Y-74648100D01*
X153489599Y-74624868D01*
X153500177Y-74597032D01*
X153511484Y-74569907D01*
X153521123Y-74549529D01*
X153527792Y-74528435D01*
X153528745Y-74518761D01*
X153532547Y-74502756D01*
X153537081Y-74497316D01*
X153544532Y-74485350D01*
X153545417Y-74478854D01*
X153550219Y-74464042D01*
X153562142Y-74443856D01*
X153566020Y-74438533D01*
X153580753Y-74412119D01*
X153590914Y-74381268D01*
X153592018Y-74375226D01*
X153597576Y-74351010D01*
X153605057Y-74333715D01*
X153607782Y-74330513D01*
X153616103Y-74317021D01*
X153622525Y-74295382D01*
X153622947Y-74293001D01*
X153630379Y-74250878D01*
X153637921Y-74213193D01*
X153644830Y-74183263D01*
X153650363Y-74164404D01*
X153652803Y-74159705D01*
X153658148Y-74148463D01*
X153658246Y-74147201D01*
X153660244Y-74126162D01*
X153664387Y-74099077D01*
X153669596Y-74071656D01*
X153674789Y-74049611D01*
X153678739Y-74038832D01*
X153684248Y-74025422D01*
X153689130Y-74003827D01*
X153689524Y-74001320D01*
X153694934Y-73973111D01*
X153702988Y-73940293D01*
X153712442Y-73906949D01*
X153722054Y-73877161D01*
X153730584Y-73855011D01*
X153736789Y-73844581D01*
X153737280Y-73844324D01*
X153744195Y-73834798D01*
X153745482Y-73826060D01*
X153748924Y-73810766D01*
X153752724Y-73806099D01*
X153758542Y-73795682D01*
X153764042Y-73775319D01*
X153765224Y-73768734D01*
X153771157Y-73744243D01*
X153782125Y-73709420D01*
X153796366Y-73669157D01*
X153812121Y-73628346D01*
X153827629Y-73591881D01*
X153833010Y-73580348D01*
X153844542Y-73554635D01*
X153853424Y-73532416D01*
X153862000Y-73515998D01*
X153870317Y-73509492D01*
X153877355Y-73502543D01*
X153878860Y-73493514D01*
X153881741Y-73478914D01*
X153885238Y-73474758D01*
X153892389Y-73465669D01*
X153903285Y-73445435D01*
X153915946Y-73418565D01*
X153928389Y-73389572D01*
X153938635Y-73362967D01*
X153944701Y-73343261D01*
X153945548Y-73337419D01*
X153949081Y-73319963D01*
X153957956Y-73295764D01*
X153962220Y-73286386D01*
X153972469Y-73261518D01*
X153978347Y-73240176D01*
X153978892Y-73234691D01*
X153982485Y-73212809D01*
X153986211Y-73203028D01*
X154003865Y-73164632D01*
X154015826Y-73131399D01*
X154020553Y-73107655D01*
X154020573Y-73106503D01*
X154025605Y-73084546D01*
X154032812Y-73071357D01*
X154042574Y-73054093D01*
X154045316Y-73043585D01*
X154049327Y-73028511D01*
X154059834Y-73002378D01*
X154075125Y-72968640D01*
X154093489Y-72930750D01*
X154113213Y-72892160D01*
X154132585Y-72856324D01*
X154149894Y-72826695D01*
X154161488Y-72809262D01*
X154178926Y-72784084D01*
X154194317Y-72759220D01*
X154196621Y-72755077D01*
X154206647Y-72733516D01*
X154218243Y-72704281D01*
X154229640Y-72672447D01*
X154239066Y-72643092D01*
X154244753Y-72621291D01*
X154245647Y-72614455D01*
X154250380Y-72599982D01*
X154260729Y-72583228D01*
X154270080Y-72567759D01*
X154283985Y-72540899D01*
X154300473Y-72506598D01*
X154315529Y-72473447D01*
X154334764Y-72431337D01*
X154355257Y-72388807D01*
X154374153Y-72351677D01*
X154385061Y-72331734D01*
X154412240Y-72284079D01*
X154432011Y-72248308D01*
X154445617Y-72222047D01*
X154454299Y-72202927D01*
X154458330Y-72191836D01*
X154468389Y-72164171D01*
X154483266Y-72128590D01*
X154501234Y-72088677D01*
X154520568Y-72048014D01*
X154539541Y-72010187D01*
X154556427Y-71978779D01*
X154569499Y-71957372D01*
X154574094Y-71951510D01*
X154588314Y-71934207D01*
X154595535Y-71920603D01*
X154595761Y-71918930D01*
X154601231Y-71909577D01*
X154604097Y-71908967D01*
X154611535Y-71902233D01*
X154612434Y-71896716D01*
X154616316Y-71881967D01*
X154625957Y-71860608D01*
X154629106Y-71854782D01*
X154639644Y-71834367D01*
X154645410Y-71819985D01*
X154645778Y-71817806D01*
X154649895Y-71807816D01*
X154660875Y-71787482D01*
X154676656Y-71760545D01*
X154683290Y-71749671D01*
X154700368Y-71720940D01*
X154713376Y-71697092D01*
X154720237Y-71682012D01*
X154720802Y-71679477D01*
X154726396Y-71667832D01*
X154740003Y-71652110D01*
X154741401Y-71650776D01*
X154758857Y-71628582D01*
X154771223Y-71603474D01*
X154779122Y-71584935D01*
X154786528Y-71575742D01*
X154787478Y-71575524D01*
X154793795Y-71568526D01*
X154805672Y-71549513D01*
X154821361Y-71521455D01*
X154837724Y-71490079D01*
X154855328Y-71455849D01*
X154870513Y-71427387D01*
X154881563Y-71407843D01*
X154886574Y-71400466D01*
X154893091Y-71391812D01*
X154905647Y-71372293D01*
X154921964Y-71345498D01*
X154928898Y-71333778D01*
X154947136Y-71303413D01*
X154963586Y-71277279D01*
X154975453Y-71259775D01*
X154977865Y-71256669D01*
X154984546Y-71245510D01*
X154982597Y-71241953D01*
X154980690Y-71238367D01*
X154983677Y-71235701D01*
X154991419Y-71225687D01*
X155003918Y-71204887D01*
X155018662Y-71177521D01*
X155020812Y-71173309D01*
X155035189Y-71146402D01*
X155047238Y-71126503D01*
X155054704Y-71117282D01*
X155055390Y-71117040D01*
X155062506Y-71110207D01*
X155066589Y-71100873D01*
X155074045Y-71085487D01*
X155088596Y-71060917D01*
X155107450Y-71031402D01*
X155127814Y-71001182D01*
X155146895Y-70974495D01*
X155161901Y-70955583D01*
X155163376Y-70953949D01*
X155175268Y-70936345D01*
X155179286Y-70922689D01*
X155182804Y-70910629D01*
X155186489Y-70908638D01*
X155194849Y-70902266D01*
X155208328Y-70885973D01*
X155217330Y-70873210D01*
X155234278Y-70848814D01*
X155250017Y-70827767D01*
X155255501Y-70821078D01*
X155266116Y-70806601D01*
X155282268Y-70781947D01*
X155301192Y-70751397D01*
X155310104Y-70736483D01*
X155398390Y-70594632D01*
X155484192Y-70468078D01*
X155508735Y-70432018D01*
X155532529Y-70395133D01*
X155551973Y-70363085D01*
X155559217Y-70350122D01*
X155573718Y-70324816D01*
X155586689Y-70305549D01*
X155594006Y-70297607D01*
X155603482Y-70287048D01*
X155604426Y-70283259D01*
X155608891Y-70273735D01*
X155621039Y-70253538D01*
X155638999Y-70225659D01*
X155660235Y-70194061D01*
X155686040Y-70156265D01*
X155711923Y-70118180D01*
X155734411Y-70084922D01*
X155746853Y-70066388D01*
X155764825Y-70040777D01*
X155781089Y-70019835D01*
X155791076Y-70009099D01*
X155802012Y-69997471D01*
X155804491Y-69991926D01*
X155808810Y-69982775D01*
X155820408Y-69963159D01*
X155837253Y-69936440D01*
X155848256Y-69919574D01*
X155870363Y-69885727D01*
X155891579Y-69852643D01*
X155908386Y-69825831D01*
X155912860Y-69818472D01*
X155927785Y-69794800D01*
X155951536Y-69758771D01*
X155983283Y-69711617D01*
X156022193Y-69654573D01*
X156067435Y-69588869D01*
X156082896Y-69566531D01*
X156110885Y-69527083D01*
X156143891Y-69482037D01*
X156178959Y-69435293D01*
X156213133Y-69390748D01*
X156243460Y-69352303D01*
X156265753Y-69325284D01*
X156284915Y-69301936D01*
X156298806Y-69283086D01*
X156304623Y-69272558D01*
X156304655Y-69272204D01*
X156309876Y-69263080D01*
X156323957Y-69244635D01*
X156344527Y-69219867D01*
X156361094Y-69200849D01*
X156390650Y-69166149D01*
X156420877Y-69128392D01*
X156446711Y-69093972D01*
X156454363Y-69083039D01*
X156490126Y-69031029D01*
X156526377Y-68979394D01*
X156561268Y-68930677D01*
X156592954Y-68887420D01*
X156619588Y-68852164D01*
X156639324Y-68827452D01*
X156643589Y-68822513D01*
X156659666Y-68803359D01*
X156669840Y-68789134D01*
X156671668Y-68785001D01*
X156676960Y-68776070D01*
X156690603Y-68758700D01*
X156709253Y-68737093D01*
X156733090Y-68709184D01*
X156755999Y-68680229D01*
X156769153Y-68662068D01*
X156786114Y-68638740D01*
X156809220Y-68609184D01*
X156833571Y-68579664D01*
X156834386Y-68578707D01*
X156860441Y-68546646D01*
X156886884Y-68511651D01*
X156906949Y-68482842D01*
X156928961Y-68451469D01*
X156953743Y-68419634D01*
X156968769Y-68402176D01*
X156985127Y-68382254D01*
X157007670Y-68351944D01*
X157033719Y-68314979D01*
X157060597Y-68275094D01*
X157067406Y-68264682D01*
X157096040Y-68222461D01*
X157126762Y-68180260D01*
X157156165Y-68142580D01*
X157180843Y-68113922D01*
X157184111Y-68110489D01*
X157218885Y-68072759D01*
X157254539Y-68030774D01*
X157288321Y-67988082D01*
X157317480Y-67948233D01*
X157339262Y-67914774D01*
X157347177Y-67900224D01*
X157360863Y-67876865D01*
X157381081Y-67847955D01*
X157400502Y-67823352D01*
X157443980Y-67771687D01*
X157477697Y-67731295D01*
X157502755Y-67700798D01*
X157520252Y-67678819D01*
X157531288Y-67663979D01*
X157536962Y-67654900D01*
X157538394Y-67650548D01*
X157543711Y-67641164D01*
X157557997Y-67622781D01*
X157578757Y-67598506D01*
X157592578Y-67583169D01*
X157615917Y-67556923D01*
X157634211Y-67534799D01*
X157644964Y-67519901D01*
X157646762Y-67515824D01*
X157655082Y-67514464D01*
X157679972Y-67513223D01*
X157721335Y-67512102D01*
X157779069Y-67511101D01*
X157853075Y-67510222D01*
X157943253Y-67509466D01*
X158049502Y-67508832D01*
X158171723Y-67508322D01*
X158309816Y-67507937D01*
X158463680Y-67507676D01*
X158633216Y-67507542D01*
X158734619Y-67507523D01*
X159822476Y-67507523D01*
X159822476Y-72008999D01*
G37*
D13*
%TO.C,S2*%
X152650000Y-89274500D02*
X152650000Y-91639500D01*
X153467500Y-87457000D02*
X157832500Y-87457000D01*
X153467500Y-93457000D02*
X157832500Y-93457000D01*
X158650000Y-89274500D02*
X158650000Y-91639500D01*
D14*
X151000000Y-92707000D02*
G75*
G02*
X150800000Y-92707000I-100000J0D01*
G01*
X150800000Y-92707000D02*
G75*
G02*
X151000000Y-92707000I100000J0D01*
G01*
D13*
%TO.C,S4*%
X152650000Y-104390500D02*
X152650000Y-106755500D01*
X153467500Y-102573000D02*
X157832500Y-102573000D01*
X153467500Y-108573000D02*
X157832500Y-108573000D01*
X158650000Y-104390500D02*
X158650000Y-106755500D01*
D14*
X151000000Y-107823000D02*
G75*
G02*
X150800000Y-107823000I-100000J0D01*
G01*
X150800000Y-107823000D02*
G75*
G02*
X151000000Y-107823000I100000J0D01*
G01*
D13*
%TO.C,S3*%
X152650000Y-96832500D02*
X152650000Y-99197500D01*
X153467500Y-95015000D02*
X157832500Y-95015000D01*
X153467500Y-101015000D02*
X157832500Y-101015000D01*
X158650000Y-96832500D02*
X158650000Y-99197500D01*
D14*
X151000000Y-100265000D02*
G75*
G02*
X150800000Y-100265000I-100000J0D01*
G01*
X150800000Y-100265000D02*
G75*
G02*
X151000000Y-100265000I100000J0D01*
G01*
%TO.C,C1*%
X131724000Y-84201000D02*
G75*
G02*
X131524000Y-84201000I-100000J0D01*
G01*
X131524000Y-84201000D02*
G75*
G02*
X131724000Y-84201000I100000J0D01*
G01*
D13*
X137374000Y-84201000D02*
G75*
G02*
X132374000Y-84201000I-2500000J0D01*
G01*
X132374000Y-84201000D02*
G75*
G02*
X137374000Y-84201000I2500000J0D01*
G01*
%TO.C,U2*%
X121112000Y-52998500D02*
X147112000Y-52998500D01*
X121112000Y-78998500D02*
X121112000Y-52998500D01*
X127112000Y-76998500D02*
X127112000Y-78998500D01*
X127112000Y-78998500D02*
X121112000Y-78998500D01*
X141112000Y-76998500D02*
X127112000Y-76998500D01*
X141112000Y-78998500D02*
X141112000Y-76998500D01*
X147112000Y-52998500D02*
X147112000Y-78998500D01*
X147112000Y-78998500D02*
X141112000Y-78998500D01*
D14*
X130212000Y-52498500D02*
G75*
G02*
X130012000Y-52498500I-100000J0D01*
G01*
X130012000Y-52498500D02*
G75*
G02*
X130212000Y-52498500I100000J0D01*
G01*
%TO.C,U4*%
D12*
X152098000Y-56245000D02*
X148098000Y-56245000D01*
X148098000Y-54245000D01*
X152098000Y-54245000D01*
X152098000Y-56245000D01*
%TD*%
M02*
