%TF.GenerationSoftware,KiCad,Pcbnew,9.0.6*%
%TF.CreationDate,2025-12-11T14:53:55+06:00*%
%TF.ProjectId,.WAV player,2e574156-2070-46c6-9179-65722e6b6963,rev?*%
%TF.SameCoordinates,Original*%
%TF.FileFunction,Copper,L2,Bot*%
%TF.FilePolarity,Positive*%
%FSLAX46Y46*%
G04 Gerber Fmt 4.6, Leading zero omitted, Abs format (unit mm)*
G04 Created by KiCad (PCBNEW 9.0.6) date 2025-12-11 14:53:55*
%MOMM*%
%LPD*%
G01*
G04 APERTURE LIST*
%TA.AperFunction,ComponentPad*%
%ADD10C,2.100000*%
%TD*%
%TA.AperFunction,ComponentPad*%
%ADD11R,1.508000X1.508000*%
%TD*%
%TA.AperFunction,ComponentPad*%
%ADD12C,1.508000*%
%TD*%
%TA.AperFunction,ComponentPad*%
%ADD13R,2.000000X2.000000*%
%TD*%
%TA.AperFunction,ComponentPad*%
%ADD14C,2.000000*%
%TD*%
%TA.AperFunction,ComponentPad*%
%ADD15C,1.100000*%
%TD*%
%TA.AperFunction,ComponentPad*%
%ADD16R,1.100000X1.100000*%
%TD*%
%TA.AperFunction,ComponentPad*%
%ADD17C,3.000000*%
%TD*%
%TA.AperFunction,ViaPad*%
%ADD18C,0.600000*%
%TD*%
%TA.AperFunction,Conductor*%
%ADD19C,0.400000*%
%TD*%
G04 APERTURE END LIST*
D10*
%TO.P,Q1,1*%
%TO.N,Mosfet_Gate*%
X122174000Y-83820000D03*
%TO.P,Q1,2*%
%TO.N,Net-(U4-ground)*%
X124714000Y-83820000D03*
%TO.P,Q1,3*%
%TO.N,uC_GND*%
X127254000Y-83820000D03*
%TD*%
D11*
%TO.P,S5,1*%
%TO.N,uC_GND*%
X152400000Y-115381000D03*
D12*
%TO.P,S5,2*%
X158900000Y-115381000D03*
%TO.P,S5,3*%
%TO.N,play{slash}pause{slash}save*%
X152400000Y-110881000D03*
%TO.P,S5,4*%
X158900000Y-110881000D03*
%TD*%
D11*
%TO.P,S1,1*%
%TO.N,uC_GND*%
X152400000Y-85149000D03*
D12*
%TO.P,S1,2*%
X158900000Y-85149000D03*
%TO.P,S1,3*%
%TO.N,Volume up*%
X152400000Y-80649000D03*
%TO.P,S1,4*%
X158900000Y-80649000D03*
%TD*%
D13*
%TO.P,U1,1,3V3*%
%TO.N,uC_3v3*%
X107568000Y-114592000D03*
D14*
%TO.P,U1,2,GND*%
%TO.N,uC_GND*%
X110108000Y-114592000D03*
%TO.P,U1,3,D15*%
%TO.N,unconnected-(U1-D15-Pad3)*%
X112648000Y-114592000D03*
%TO.P,U1,4,D2*%
%TO.N,unconnected-(U1-D2-Pad4)*%
X115188000Y-114592000D03*
%TO.P,U1,5,D4*%
%TO.N,unconnected-(U1-D4-Pad5)*%
X117728000Y-114592000D03*
%TO.P,U1,6,RX2*%
%TO.N,unconnected-(U1-RX2-Pad6)*%
X120268000Y-114592000D03*
%TO.P,U1,7,TX2*%
%TO.N,unconnected-(U1-TX2-Pad7)*%
X122808000Y-114592000D03*
%TO.P,U1,8,D5*%
%TO.N,SD_CS*%
X125348000Y-114592000D03*
%TO.P,U1,9,D18*%
%TO.N,SD_CLK*%
X127888000Y-114592000D03*
%TO.P,U1,10,D19*%
%TO.N,SD_MISO*%
X130428000Y-114592000D03*
%TO.P,U1,11,D21*%
%TO.N,OLED_SDA*%
X132968000Y-114592000D03*
%TO.P,U1,12,RX0*%
%TO.N,unconnected-(U1-RX0-Pad12)*%
X135508000Y-114592000D03*
%TO.P,U1,13,TX0*%
%TO.N,unconnected-(U1-TX0-Pad13)*%
X138048000Y-114592000D03*
%TO.P,U1,14,D22*%
%TO.N,OLED_SCL*%
X140588000Y-114592000D03*
%TO.P,U1,15,D23*%
%TO.N,SD_MOSI*%
X143128000Y-114592000D03*
%TO.P,U1,16,EN*%
%TO.N,unconnected-(U1-EN-Pad16)*%
X143128000Y-89192000D03*
%TO.P,U1,17,VP*%
%TO.N,unconnected-(U1-VP-Pad17)*%
X140588000Y-89192000D03*
%TO.P,U1,18,VN*%
%TO.N,unconnected-(U1-VN-Pad18)*%
X138048000Y-89192000D03*
%TO.P,U1,19,D34*%
%TO.N,unconnected-(U1-D34-Pad19)*%
X135508000Y-89192000D03*
%TO.P,U1,20,D35*%
%TO.N,unconnected-(U1-D35-Pad20)*%
X132968000Y-89192000D03*
%TO.P,U1,21,D32*%
%TO.N,Volume up*%
X130428000Y-89192000D03*
%TO.P,U1,22,D33*%
%TO.N,Volume down*%
X127888000Y-89192000D03*
%TO.P,U1,23,D25*%
%TO.N,Mosfet_Gate*%
X125348000Y-89192000D03*
%TO.P,U1,24,D26*%
%TO.N,play{slash}pause{slash}save*%
X122808000Y-89192000D03*
%TO.P,U1,25,D27*%
%TO.N,skip 10 secs{slash}next track*%
X120268000Y-89192000D03*
%TO.P,U1,26,D14*%
%TO.N,rewind 10 secs{slash}prev track*%
X117728000Y-89192000D03*
%TO.P,U1,27,D12*%
%TO.N,unconnected-(U1-D12-Pad27)*%
X115188000Y-89192000D03*
%TO.P,U1,28,D13*%
%TO.N,unconnected-(U1-D13-Pad28)*%
X112648000Y-89192000D03*
%TO.P,U1,29,GND*%
%TO.N,uC_GND*%
X110108000Y-89192000D03*
%TO.P,U1,30,VIN*%
%TO.N,uC_VIN*%
X107568000Y-89192000D03*
%TD*%
D11*
%TO.P,S2,1*%
%TO.N,uC_GND*%
X152400000Y-92707000D03*
D12*
%TO.P,S2,2*%
X158900000Y-92707000D03*
%TO.P,S2,3*%
%TO.N,Volume down*%
X152400000Y-88207000D03*
%TO.P,S2,4*%
X158900000Y-88207000D03*
%TD*%
D11*
%TO.P,S4,1*%
%TO.N,uC_GND*%
X152400000Y-107823000D03*
D12*
%TO.P,S4,2*%
X158900000Y-107823000D03*
%TO.P,S4,3*%
%TO.N,rewind 10 secs{slash}prev track*%
X152400000Y-103323000D03*
%TO.P,S4,4*%
X158900000Y-103323000D03*
%TD*%
D11*
%TO.P,S3,1*%
%TO.N,uC_GND*%
X152400000Y-100265000D03*
D12*
%TO.P,S3,2*%
X158900000Y-100265000D03*
%TO.P,S3,3*%
%TO.N,skip 10 secs{slash}next track*%
X152400000Y-95765000D03*
%TO.P,S3,4*%
X158900000Y-95765000D03*
%TD*%
D15*
%TO.P,C1,N*%
%TO.N,uC_GND*%
X136124000Y-84201000D03*
D16*
%TO.P,C1,P*%
%TO.N,uC_VIN*%
X133624000Y-84201000D03*
%TD*%
D11*
%TO.P,U2,1,GND*%
%TO.N,uC_GND*%
X130302000Y-54498500D03*
D12*
%TO.P,U2,2,VCC_IN*%
%TO.N,uC_3v3*%
X132842000Y-54498500D03*
%TO.P,U2,3,SCL*%
%TO.N,OLED_SCL*%
X135382000Y-54498500D03*
%TO.P,U2,4,SDA*%
%TO.N,OLED_SDA*%
X137922000Y-54498500D03*
D17*
%TO.P,U2,S1*%
%TO.N,N/C*%
X123112000Y-54998500D03*
%TO.P,U2,S2*%
X145112000Y-54998500D03*
%TO.P,U2,S3*%
X145112000Y-76998500D03*
%TO.P,U2,S4*%
X123112000Y-76998500D03*
%TD*%
D18*
%TO.N,uC_GND*%
X111279868Y-82704868D03*
X107407025Y-78705025D03*
X121474000Y-85344000D03*
X122874000Y-85276683D03*
%TO.N,OLED_SDA*%
X121285000Y-94615000D03*
X142875000Y-112395000D03*
%TO.N,SD_CLK*%
X100773000Y-78613000D03*
%TO.N,SD_CS*%
X105664000Y-92837000D03*
X111042000Y-98044000D03*
%TO.N,SD_MOSI*%
X102581025Y-83531025D03*
X111041999Y-95365263D03*
%TO.N,SD_MISO*%
X101473000Y-75311000D03*
%TO.N,uC_VIN*%
X128905000Y-84452000D03*
%TO.N,Volume up*%
X138176000Y-83501000D03*
%TO.N,skip 10 secs{slash}next track*%
X124587000Y-92329000D03*
X149733000Y-93091000D03*
X121539000Y-92329000D03*
X147786309Y-92774001D03*
%TO.N,rewind 10 secs{slash}prev track*%
X123742000Y-91186000D03*
%TD*%
D19*
%TO.N,uC_GND*%
X153555000Y-86304000D02*
X153555000Y-91552000D01*
X153555000Y-114226000D02*
X153555000Y-108978000D01*
X107407025Y-78705025D02*
X111279868Y-82577868D01*
X153555000Y-106668000D02*
X153555000Y-101420000D01*
X158900000Y-100265000D02*
X152400000Y-100265000D01*
X121541317Y-85276683D02*
X121474000Y-85344000D01*
X158900000Y-92707000D02*
X152400000Y-92707000D01*
X152400000Y-107823000D02*
X153555000Y-106668000D01*
X153555000Y-93862000D02*
X153555000Y-99110000D01*
X122874000Y-85276683D02*
X121541317Y-85276683D01*
X130302000Y-54483000D02*
X130302000Y-80772000D01*
X153555000Y-108978000D02*
X152400000Y-107823000D01*
X130302000Y-80772000D02*
X127254000Y-83820000D01*
X158900000Y-107823000D02*
X152400000Y-107823000D01*
X152400000Y-85149000D02*
X153555000Y-86304000D01*
X153555000Y-101420000D02*
X152400000Y-100265000D01*
X153555000Y-99110000D02*
X152400000Y-100265000D01*
X152400000Y-85149000D02*
X158900000Y-85149000D01*
X153555000Y-91552000D02*
X152400000Y-92707000D01*
X152400000Y-92707000D02*
X153555000Y-93862000D01*
X152400000Y-115381000D02*
X153555000Y-114226000D01*
X111279868Y-82577868D02*
X111279868Y-82704868D01*
%TO.N,OLED_SCL*%
X140588000Y-93713314D02*
X140588000Y-114592000D01*
X144529000Y-88611686D02*
X144529000Y-89772314D01*
X144529000Y-89772314D02*
X140588000Y-93713314D01*
X135382000Y-79464686D02*
X144529000Y-88611686D01*
X135382000Y-54498500D02*
X135382000Y-79464686D01*
%TO.N,OLED_SDA*%
X129819686Y-113153000D02*
X131801000Y-113153000D01*
X137922000Y-54498500D02*
X150434000Y-67010500D01*
X150434000Y-109210258D02*
X147423258Y-112221000D01*
X131801000Y-113153000D02*
X133202000Y-114554000D01*
X119761000Y-96139000D02*
X119761000Y-103094314D01*
X147423258Y-112221000D02*
X143049000Y-112221000D01*
X143049000Y-112221000D02*
X142875000Y-112395000D01*
X121285000Y-94615000D02*
X119761000Y-96139000D01*
X150434000Y-67010500D02*
X150434000Y-109210258D01*
X119761000Y-103094314D02*
X129819686Y-113153000D01*
%TO.N,SD_CLK*%
X124430735Y-112595099D02*
X126163099Y-112595099D01*
X100773000Y-87535364D02*
X104963000Y-91725364D01*
X100773000Y-78613000D02*
X100773000Y-87535364D01*
X126163099Y-112595099D02*
X128122000Y-114554000D01*
X104963000Y-91725364D02*
X104963000Y-93127364D01*
X104963000Y-93127364D02*
X124430735Y-112595099D01*
%TO.N,SD_CS*%
X110871000Y-98044000D02*
X111042000Y-98044000D01*
X105664000Y-92837000D02*
X110871000Y-98044000D01*
%TO.N,SD_MOSI*%
X102581025Y-86904289D02*
X111041999Y-95365263D01*
X102581025Y-83531025D02*
X102581025Y-86904289D01*
%TO.N,SD_MISO*%
X111883007Y-96066263D02*
X130370744Y-114554000D01*
X101473000Y-75311000D02*
X101473000Y-86868000D01*
X110671263Y-96066263D02*
X111883007Y-96066263D01*
X101473000Y-86868000D02*
X110671263Y-96066263D01*
X130370744Y-114554000D02*
X130662000Y-114554000D01*
%TO.N,uC_VIN*%
X125604000Y-87753000D02*
X109203000Y-87753000D01*
X109203000Y-87753000D02*
X107802000Y-89154000D01*
X128905000Y-84452000D02*
X125604000Y-87753000D01*
%TO.N,Volume up*%
X138176000Y-83501000D02*
X133924000Y-87753000D01*
X132063000Y-87753000D02*
X130662000Y-89154000D01*
X133924000Y-87753000D02*
X132063000Y-87753000D01*
%TO.N,skip 10 secs{slash}next track*%
X149416001Y-92774001D02*
X147786309Y-92774001D01*
X121539000Y-92329000D02*
X124587000Y-92329000D01*
X149733000Y-93091000D02*
X149416001Y-92774001D01*
%TO.N,rewind 10 secs{slash}prev track*%
X119994000Y-91186000D02*
X117962000Y-89154000D01*
X123742000Y-91186000D02*
X119994000Y-91186000D01*
%TD*%
M02*
